<?xml version="1.0" standalone="no"?>
<!DOCTYPE svg PUBLIC "-//W3C//DTD SVG 20010904//EN"
 "http://www.w3.org/TR/2001/REC-SVG-20010904/DTD/svg10.dtd">
<svg version="1.0" xmlns="http://www.w3.org/2000/svg"
 width="1720.000000pt" height="900.000000pt" viewBox="0 0 1720.000000 900.000000"
 preserveAspectRatio="xMidYMid meet">

<g transform="translate(0.000000,900.000000) scale(0.100000,-0.100000)"
fill="#000000" stroke="none">
<path d="M0 4500 l0 -4500 8600 0 8600 0 0 4500 0 4500 -8600 0 -8600 0 0
-4500z m545 4110 l100 -100 -78 -78 -77 -78 35 -34 35 -34 -25 -25 -25 -26
-100 100 c-55 55 -100 104 -100 110 0 6 31 42 70 80 l70 69 -32 33 -32 33 24
25 c13 14 26 25 29 25 4 0 51 -45 106 -100z m167 75 c10 -22 9 -29 -10 -47
-18 -19 -25 -20 -47 -10 -44 20 -28 82 22 82 15 0 27 -9 35 -25z m7156 -1040
c374 -52 734 -207 1032 -445 97 -77 284 -266 351 -355 110 -143 221 -335 295
-505 l19 -45 3 689 2 689 128 -7 c344 -18 612 -86 892 -226 273 -137 525 -340
712 -575 141 -177 282 -436 352 -645 l36 -105 0 591 0 592 -30 5 c-130 26
-163 209 -51 284 49 33 94 38 147 18 145 -55 133 -272 -16 -302 l-30 -5 0
-629 c0 -588 1 -637 21 -751 11 -68 22 -138 25 -155 5 -33 5 -33 64 -33 l60 0
0 -184 c0 -129 -3 -185 -11 -188 -7 -2 152 -269 355 -596 201 -325 366 -594
366 -597 0 -2 -37 -42 -83 -88 -190 -192 -323 -454 -362 -714 -24 -156 -32
-143 85 -143 l100 0 0 -95 0 -95 35 0 35 0 0 -235 0 -235 -700 0 -700 0 0 235
0 235 35 0 35 0 0 95 0 95 101 0 101 0 -7 68 c-3 37 -9 77 -12 90 l-5 22
-1804 0 -1804 0 0 -62 c0 -199 82 -511 196 -743 283 -581 811 -978 1469 -1102
127 -24 446 -29 588 -9 512 72 976 332 1291 724 l58 72 79 0 c44 0 79 -3 79
-7 0 -4 -31 -48 -69 -97 -534 -700 -1441 -1002 -2285 -760 -625 180 -1126 627
-1392 1244 l-19 45 -3 -689 -2 -689 -133 7 c-720 38 -1317 372 -1709 955 -171
255 -285 556 -334 876 -20 134 -23 430 -5 565 52 396 207 764 451 1070 77 97
266 284 355 351 143 110 335 221 505 295 l45 19 -689 3 -689 2 7 128 c18 344
86 612 226 892 335 667 986 1107 1735 1170 124 10 337 4 473 -15z"/>
<path d="M457 8492 c-46 -46 -47 -49 -29 -65 17 -16 21 -14 65 31 46 46 47 49
29 65 -17 16 -21 14 -65 -31z"/>
<path d="M687 8675 c-4 -8 -2 -17 3 -20 6 -4 10 3 10 14 0 25 -6 27 -13 6z"/>
<path d="M11629 7557 c-21 -14 -39 -38 -48 -63 -13 -36 -12 -44 6 -85 46 -104
180 -104 226 0 18 41 19 49 6 85 -17 50 -67 86 -119 86 -22 0 -51 -9 -71 -23z"/>
<path d="M7315 7519 c-670 -86 -1261 -516 -1555 -1130 -97 -204 -171 -480
-186 -691 l-7 -98 1998 0 1998 0 -6 103 c-16 277 -123 608 -280 865 -321 527
-863 875 -1477 951 -99 13 -385 12 -485 0z"/>
<path d="M9700 5536 l0 -1996 63 0 c130 0 363 48 543 111 189 66 467 224 594
338 l45 40 -67 64 c-38 35 -68 67 -68 71 0 3 165 273 366 598 203 327 362 594
355 596 -8 3 -11 59 -11 188 l0 184 50 0 c49 0 50 0 50 31 0 58 -51 283 -91
404 -172 516 -546 939 -1040 1175 -204 97 -480 171 -691 186 l-98 7 0 -1997z"/>
<path d="M11550 5540 c0 -82 4 -150 9 -150 4 0 37 47 72 105 35 58 66 105 69
105 3 0 34 -47 69 -105 35 -58 68 -105 72 -105 5 0 9 68 9 150 l0 150 -150 0
-150 0 0 -150z"/>
<path d="M11279 4838 c-222 -358 -405 -655 -407 -659 -2 -4 28 -38 65 -77 83
-85 166 -199 226 -312 84 -155 147 -387 147 -536 l0 -64 384 0 385 0 5 58 c26
259 92 457 214 647 52 82 176 230 209 253 15 9 22 21 18 30 -6 17 -794 1292
-806 1307 -5 5 -9 -224 -9 -510 l0 -520 60 -18 c193 -56 249 -296 100 -430
-101 -91 -239 -91 -340 0 -149 134 -93 376 100 430 l60 16 0 519 c0 285 -2
518 -4 518 -2 0 -185 -293 -407 -652z"/>
<path d="M7635 5458 c-3 -7 -4 -443 -3 -968 l3 -955 965 0 965 0 0 965 0 965
-963 3 c-765 2 -964 0 -967 -10z"/>
<path d="M7325 5453 c-188 -24 -436 -96 -605 -175 -622 -292 -1054 -889 -1139
-1578 -16 -123 -13 -373 5 -501 124 -892 821 -1589 1713 -1713 62 -9 132 -16
156 -16 l45 0 0 1995 0 1995 -72 -1 c-40 -1 -86 -4 -103 -6z"/>
<path d="M11615 4383 c-47 -24 -86 -64 -106 -108 -68 -147 78 -325 234 -285
93 25 167 114 167 202 0 76 -48 151 -122 189 -46 23 -131 25 -173 2z"/>
<path d="M10975 3874 c-104 -91 -360 -244 -535 -320 l-45 -19 404 -3 c222 -1
406 0 409 3 22 22 -149 376 -182 375 -6 -1 -29 -17 -51 -36z"/>
<path d="M11110 3085 l0 -85 590 0 590 0 0 85 0 85 -590 0 -590 0 0 -85z"/>
<path d="M11040 2795 l0 -185 660 0 660 0 0 185 0 185 -660 0 -660 0 0 -185z"/>
</g>
</svg>
